<svg width="170" height="26" viewBox="0 0 170 26" fill="none" xmlns="http://www.w3.org/2000/svg">
<g clip-path="url(#clip0_45_219)">
<path d="M25.1685 9.8703C25.0477 9.48489 24.7144 9.20465 24.3133 9.15153L17.0454 8.18275L13.6495 1.38468C13.2974 0.678413 12.1369 0.678413 11.7848 1.38468L8.38889 8.18275L1.12098 9.15153C0.719944 9.20465 0.386586 9.48489 0.265734 9.8703C0.143856 10.2547 0.255333 10.6766 0.552216 10.9495L5.7961 15.7798L4.39714 24.605C4.33048 25.0186 4.52004 25.4332 4.87737 25.654C5.23573 25.8738 5.69092 25.8593 6.03053 25.6144L12.7172 20.8393L19.4038 25.6144C19.584 25.7447 19.7966 25.8092 20.0091 25.8092C20.1987 25.8092 20.3882 25.7571 20.557 25.654C20.9143 25.4331 21.1039 25.0186 21.0372 24.605L19.6382 15.7798L24.8821 10.9494C25.1789 10.6766 25.2904 10.2547 25.1685 9.8703Z" fill="#E8B931"/>
</g>
<g clip-path="url(#clip1_45_219)">
<path d="M61.1685 9.8703C61.0477 9.48489 60.7144 9.20465 60.3133 9.15153L53.0454 8.18275L49.6495 1.38468C49.2974 0.678413 48.1369 0.678413 47.7848 1.38468L44.3889 8.18275L37.121 9.15153C36.7199 9.20465 36.3866 9.48489 36.2657 9.8703C36.1439 10.2547 36.2553 10.6766 36.5522 10.9495L41.7961 15.7798L40.3971 24.605C40.3305 25.0186 40.52 25.4332 40.8774 25.654C41.2357 25.8738 41.6909 25.8593 42.0305 25.6144L48.7172 20.8393L55.4038 25.6144C55.584 25.7447 55.7966 25.8092 56.0091 25.8092C56.1987 25.8092 56.3882 25.7571 56.557 25.654C56.9143 25.4331 57.1039 25.0186 57.0372 24.605L55.6382 15.7798L60.8821 10.9494C61.1789 10.6766 61.2904 10.2547 61.1685 9.8703Z" fill="#E8B931"/>
</g>
<g clip-path="url(#clip2_45_219)">
<path d="M97.1685 9.8703C97.0477 9.48489 96.7144 9.20465 96.3133 9.15153L89.0454 8.18275L85.6495 1.38468C85.2974 0.678413 84.1369 0.678413 83.7848 1.38468L80.3889 8.18275L73.121 9.15153C72.7199 9.20465 72.3866 9.48489 72.2657 9.8703C72.1439 10.2547 72.2553 10.6766 72.5522 10.9495L77.7961 15.7798L76.3971 24.605C76.3305 25.0186 76.52 25.4332 76.8774 25.654C77.2357 25.8738 77.6909 25.8593 78.0305 25.6144L84.7172 20.8393L91.4038 25.6144C91.584 25.7447 91.7966 25.8092 92.0091 25.8092C92.1987 25.8092 92.3882 25.7571 92.557 25.654C92.9143 25.4331 93.1039 25.0186 93.0372 24.605L91.6382 15.7798L96.8821 10.9494C97.1789 10.6766 97.2904 10.2547 97.1685 9.8703Z" fill="#E8B931"/>
</g>
<g clip-path="url(#clip3_45_219)">
<path d="M133.169 9.8703C133.048 9.48489 132.714 9.20465 132.313 9.15153L125.045 8.18275L121.65 1.38468C121.297 0.678413 120.137 0.678413 119.785 1.38468L116.389 8.18275L109.121 9.15153C108.72 9.20465 108.387 9.48489 108.266 9.8703C108.144 10.2547 108.255 10.6766 108.552 10.9495L113.796 15.7798L112.397 24.605C112.331 25.0186 112.52 25.4332 112.877 25.654C113.236 25.8738 113.691 25.8593 114.031 25.6144L120.717 20.8393L127.404 25.6144C127.584 25.7447 127.797 25.8092 128.009 25.8092C128.199 25.8092 128.388 25.7571 128.557 25.654C128.914 25.4331 129.104 25.0186 129.037 24.605L127.638 15.7798L132.882 10.9494C133.179 10.6766 133.29 10.2547 133.169 9.8703Z" fill="#E8B931"/>
</g>
<g clip-path="url(#clip4_45_219)">
<path d="M169.169 9.8703C169.048 9.48489 168.714 9.20465 168.313 9.15153L161.045 8.18275L157.65 1.38468C157.297 0.678413 156.137 0.678413 155.785 1.38468L152.389 8.18275L145.121 9.15153C144.72 9.20465 144.387 9.48489 144.266 9.8703C144.144 10.2547 144.255 10.6766 144.552 10.9495L149.796 15.7798L148.397 24.605C148.331 25.0186 148.52 25.4332 148.877 25.654C149.236 25.8738 149.691 25.8593 150.031 25.6144L156.717 20.8393L163.404 25.6144C163.584 25.7447 163.797 25.8092 164.009 25.8092C164.199 25.8092 164.388 25.7571 164.557 25.654C164.914 25.4331 165.104 25.0186 165.037 24.605L163.638 15.7798L168.882 10.9494C169.179 10.6766 169.29 10.2547 169.169 9.8703Z" fill="#B2B2B2"/>
</g>
<defs>
<clipPath id="clip0_45_219">
<rect width="25" height="25" fill="white" transform="translate(0.217163 0.832031)"/>
</clipPath>
<clipPath id="clip1_45_219">
<rect width="25" height="25" fill="white" transform="translate(36.2172 0.832031)"/>
</clipPath>
<clipPath id="clip2_45_219">
<rect width="25" height="25" fill="white" transform="translate(72.2172 0.832031)"/>
</clipPath>
<clipPath id="clip3_45_219">
<rect width="25" height="25" fill="white" transform="translate(108.217 0.832031)"/>
</clipPath>
<clipPath id="clip4_45_219">
<rect width="25" height="25" fill="white" transform="translate(144.217 0.832031)"/>
</clipPath>
</defs>
</svg>
