<svg width="65" height="65" viewBox="0 0 65 65" fill="none" xmlns="http://www.w3.org/2000/svg">
<rect x="0.64856" y="0.165039" width="64" height="64" rx="32" fill="#0B2D45"/>
<g clip-path="url(#clip0_53_811)">
<path fill-rule="evenodd" clip-rule="evenodd" d="M40.697 41.0807C39.3433 42.396 37.9023 43.7619 37.9023 43.7619L35.418 39.5207C38.0195 38.8869 40.2686 37.385 41.837 35.3413L44.5539 39.9782C44.5539 39.9782 42.617 40.535 40.697 41.0807ZM32.6486 34.9775C29.0242 34.9775 26.0861 32.0394 26.0861 28.415C26.0861 24.7907 29.0242 21.8525 32.6486 21.8525C36.273 21.8525 39.2111 24.7907 39.2111 28.415C39.2111 32.0394 36.273 34.9775 32.6486 34.9775ZM27.3948 43.7619C27.3948 43.7619 25.9539 42.396 24.6001 41.0807C22.6801 40.535 20.7433 39.9782 20.7433 39.9782L23.4601 35.3413C25.0286 37.385 27.2776 38.8869 29.8792 39.5207L27.3948 43.7619ZM42.9808 33.5113C43.7336 32.001 44.1686 30.3097 44.1686 28.5144C44.1686 22.2463 39.0105 17.165 32.6486 17.165C26.2867 17.165 21.1286 22.2463 21.1286 28.5144C21.1286 30.3097 21.5636 32.001 22.3164 33.5113L17.6401 41.4894C17.6401 41.4894 20.6055 42.0847 23.6139 42.7035C25.6201 44.9366 27.617 47.165 27.617 47.165L31.9164 39.8282C32.1601 39.8432 32.4011 39.8647 32.6486 39.8647C32.8961 39.8647 33.137 39.8432 33.3808 39.8282L37.6801 47.165C37.6801 47.165 39.677 44.9366 41.6833 42.7035C44.6917 42.0847 47.657 41.4894 47.657 41.4894L42.9808 33.5113ZM32.6486 23.7275C30.0592 23.7275 27.9611 25.8257 27.9611 28.415C27.9611 31.0044 30.0592 33.1025 32.6486 33.1025C35.238 33.1025 37.3361 31.0044 37.3361 28.415C37.3361 25.8257 35.238 23.7275 32.6486 23.7275Z" fill="white"/>
</g>
<defs>
<clipPath id="clip0_53_811">
<rect width="30" height="30" fill="white" transform="translate(17.6486 17.165)"/>
</clipPath>
</defs>
</svg>
