<svg width="96" height="25" viewBox="0 0 96 25" fill="none" xmlns="http://www.w3.org/2000/svg">
<g clip-path="url(#clip0_122_119)">
<path d="M14.8684 10.587L24.1689 0H21.9658L13.8867 9.19064L7.43878 0H0L9.75268 13.8992L0 24.9999H2.20316L10.7294 15.2922L17.5403 24.9999H24.9791M2.99832 1.62697H6.38299L21.9641 23.4529H18.5786" fill="#E8B931"/>
</g>
<g clip-path="url(#clip1_122_119)">
<path d="M41.7909 23.9184H45.041C45.4894 23.9184 45.8528 23.5549 45.8528 23.1066V8.90069C45.8528 8.45226 45.4894 8.08887 45.041 8.08887H41.7909C41.3425 8.08887 40.9791 8.45226 40.9791 8.90069V23.1066C40.9791 23.5549 41.3425 23.9184 41.7909 23.9184Z" fill="#E8B931"/>
<path d="M41.7909 5.59136H45.041C45.4894 5.59136 45.8528 5.22792 45.8528 4.77954V1.89349C45.8528 1.44511 45.4894 1.08167 45.041 1.08167H41.7909C41.3425 1.08167 40.9791 1.44511 40.9791 1.89349V4.77954C40.9791 5.22792 41.3425 5.59136 41.7909 5.59136Z" fill="#E8B931"/>
<path d="M64.7563 9.7365C64.2996 9.13534 63.6262 8.64097 62.7358 8.25347C61.8454 7.86624 60.8625 7.67249 59.7871 7.67249C57.6041 7.67249 55.7543 8.50561 54.2378 10.1722C53.9361 10.5038 53.7167 10.4313 53.7167 9.98285V8.90062C53.7167 8.45219 53.3532 8.0888 52.9048 8.0888H50.0016C49.5532 8.0888 49.1898 8.45219 49.1898 8.90062V23.1065C49.1898 23.5549 49.5533 23.9183 50.0016 23.9183H53.2517C53.7001 23.9183 54.0635 23.5549 54.0635 23.1065V18.166C54.0635 16.1079 54.1878 14.6971 54.4364 13.934C54.6848 13.1709 55.1446 12.5581 55.8152 12.0956C56.4859 11.633 57.2432 11.4017 58.0874 11.4017C58.7465 11.4017 59.3102 11.5636 59.7786 11.8874C60.2469 12.2113 60.5852 12.6649 60.7933 13.2489C61.0015 13.8329 61.1055 15.1193 61.1055 17.1081V23.1064C61.1055 23.5548 61.4689 23.9183 61.9173 23.9183H65.1673C65.6157 23.9183 65.9791 23.5548 65.9791 23.1064V15.0614C65.9791 13.6393 65.8895 12.5465 65.7104 11.7834C65.5314 11.0203 65.2133 10.338 64.7563 9.7365Z" fill="#E8B931"/>
</g>
<path d="M95.5019 0.00454567L91.745 0C88.1019 0 85.7484 2.41364 85.7484 6.15341V8.98864H81.9791V14.1193H85.7484L85.7439 25H91.0178L91.0223 14.1193H95.3473L95.3439 8.98977H91.0223V6.58409C91.0223 5.42727 91.2962 4.84205 92.8019 4.84205L95.4905 4.84091L95.5019 0.00454567Z" fill="#E8B931"/>
<defs>
<clipPath id="clip0_122_119">
<rect width="24.9791" height="25" fill="white"/>
</clipPath>
<clipPath id="clip1_122_119">
<rect width="25" height="25" fill="white" transform="translate(40.9791)"/>
</clipPath>
</defs>
</svg>
