<svg width="178" height="41" viewBox="0 0 178 41" fill="none" xmlns="http://www.w3.org/2000/svg">
<rect y="0.202148" width="178" height="40" rx="4" fill="#E8B931"/>
<path d="M28.457 13.5879L23.5439 27.2021H21.1885L16.3545 13.5879H18.666L22.1113 23.915C22.2402 24.2959 22.3311 24.7178 22.3838 25.1807H22.4277C22.4688 24.7939 22.5713 24.3662 22.7354 23.8975L26.2246 13.5879H28.457ZM29.8457 14.1416C29.8457 13.7959 29.9629 13.5117 30.1973 13.2891C30.4375 13.0605 30.7393 12.9463 31.1025 12.9463C31.46 12.9463 31.7617 13.0605 32.0078 13.2891C32.2539 13.5117 32.377 13.7959 32.377 14.1416C32.377 14.4873 32.2539 14.7744 32.0078 15.0029C31.7617 15.2256 31.46 15.3369 31.1025 15.3369C30.7451 15.3369 30.4463 15.2227 30.2061 14.9941C29.9658 14.7656 29.8457 14.4814 29.8457 14.1416ZM30.0479 27.2021V17.4814H32.1133V27.2021H30.0479ZM34.5654 24.9434C35.4736 25.5586 36.417 25.8662 37.3955 25.8662C38.6846 25.8662 39.3291 25.4678 39.3291 24.6709C39.3291 24.3369 39.1943 24.0645 38.9248 23.8535C38.6553 23.6367 38.0488 23.3525 37.1055 23.001C36.1152 22.6201 35.4473 22.2158 35.1016 21.7881C34.7559 21.3545 34.583 20.8125 34.583 20.1621C34.583 19.2656 34.958 18.5566 35.708 18.0352C36.458 17.5137 37.3867 17.2529 38.4941 17.2529C39.3438 17.2529 40.1377 17.3936 40.876 17.6748V19.5029C40.1377 19.0459 39.3115 18.8174 38.3975 18.8174C37.876 18.8174 37.4541 18.9258 37.1318 19.1426C36.8096 19.3594 36.6484 19.6436 36.6484 19.9951C36.6484 20.3408 36.7656 20.6133 37 20.8125C37.2402 21.0117 37.7881 21.2754 38.6436 21.6035C39.6982 21.9902 40.416 22.4033 40.7969 22.8428C41.1836 23.2764 41.377 23.8184 41.377 24.4688C41.377 25.3887 41.002 26.1123 40.252 26.6396C39.502 27.167 38.5176 27.4307 37.2988 27.4307C36.2559 27.4307 35.3447 27.249 34.5654 26.8857V24.9434ZM43.3105 14.1416C43.3105 13.7959 43.4277 13.5117 43.6621 13.2891C43.9023 13.0605 44.2041 12.9463 44.5674 12.9463C44.9248 12.9463 45.2266 13.0605 45.4727 13.2891C45.7188 13.5117 45.8418 13.7959 45.8418 14.1416C45.8418 14.4873 45.7188 14.7744 45.4727 15.0029C45.2266 15.2256 44.9248 15.3369 44.5674 15.3369C44.21 15.3369 43.9111 15.2227 43.6709 14.9941C43.4307 14.7656 43.3105 14.4814 43.3105 14.1416ZM43.5127 27.2021V17.4814H45.5781V27.2021H43.5127ZM53.4795 27.0967C53.0986 27.3135 52.5508 27.4219 51.8359 27.4219C49.9902 27.4219 49.0674 26.4199 49.0674 24.416V19.1162H47.4238V17.4814H49.0674V15.2051L51.124 14.5811V17.4814H53.4795V19.1162H51.124V24.0557C51.124 24.6592 51.2295 25.0957 51.4404 25.3652C51.6572 25.6348 52.0029 25.7695 52.4775 25.7695C52.8467 25.7695 53.1807 25.6641 53.4795 25.4531V27.0967ZM76.8936 13.5879L73.1406 27.2021H70.7324L68.1221 17.6748C67.999 17.2236 67.9258 16.7461 67.9023 16.2422H67.8672C67.8203 16.7754 67.7383 17.25 67.6211 17.666L64.9756 27.2021H62.5322L58.6826 13.5879H61.0029L63.5518 23.5459C63.6631 23.9854 63.7334 24.4658 63.7627 24.9873H63.8242C63.8477 24.6006 63.9414 24.1143 64.1055 23.5283L66.9268 13.5879H69.0713L71.7256 23.625C71.8193 23.9883 71.8955 24.4365 71.9541 24.9697H71.9893C72.0127 24.5361 72.0918 24.0732 72.2266 23.5811L74.6875 13.5879H76.8936ZM86.7197 22.8955H80.04C80.1279 24.8584 81.127 25.8398 83.0371 25.8398C84.1152 25.8398 85.0967 25.5176 85.9814 24.873V26.5781C85.1143 27.1465 83.9746 27.4307 82.5625 27.4307C81.1211 27.4307 79.9932 26.9912 79.1787 26.1123C78.3643 25.2334 77.957 24.0029 77.957 22.4209C77.957 20.9209 78.3936 19.6846 79.2666 18.7119C80.1455 17.7393 81.2441 17.2529 82.5625 17.2529C83.875 17.2529 84.8945 17.6689 85.6211 18.501C86.3535 19.3271 86.7197 20.4668 86.7197 21.9199V22.8955ZM84.7158 21.3926C84.71 20.5605 84.5195 19.9219 84.1445 19.4766C83.7695 19.0312 83.2363 18.8086 82.5449 18.8086C81.918 18.8086 81.373 19.0459 80.9102 19.5205C80.4473 19.9893 80.1602 20.6133 80.0488 21.3926H84.7158ZM90.9473 25.8926V27.2021H88.8818V12.8145H90.9473V19.0986H90.9912C91.7412 17.8682 92.8369 17.2529 94.2783 17.2529C95.5088 17.2529 96.4756 17.6865 97.1787 18.5537C97.8877 19.415 98.2422 20.584 98.2422 22.0605C98.2422 23.6777 97.8408 24.9785 97.0381 25.9629C96.2412 26.9414 95.1719 27.4307 93.8301 27.4307C92.5762 27.4307 91.6299 26.918 90.9912 25.8926H90.9473ZM90.9297 23.1416C90.9297 23.8799 91.1641 24.5039 91.6328 25.0137C92.1074 25.5234 92.6992 25.7783 93.4082 25.7783C94.2695 25.7783 94.9375 25.4502 95.4121 24.7939C95.8867 24.1318 96.124 23.2178 96.124 22.0518C96.124 21.0732 95.8984 20.3057 95.4473 19.749C95.002 19.1865 94.3926 18.9053 93.6191 18.9053C92.8457 18.9053 92.2041 19.1865 91.6943 19.749C91.1846 20.3057 90.9297 21.0264 90.9297 21.9111V23.1416ZM100.079 24.9434C100.987 25.5586 101.931 25.8662 102.909 25.8662C104.198 25.8662 104.843 25.4678 104.843 24.6709C104.843 24.3369 104.708 24.0645 104.438 23.8535C104.169 23.6367 103.562 23.3525 102.619 23.001C101.629 22.6201 100.961 22.2158 100.615 21.7881C100.27 21.3545 100.097 20.8125 100.097 20.1621C100.097 19.2656 100.472 18.5566 101.222 18.0352C101.972 17.5137 102.9 17.2529 104.008 17.2529C104.857 17.2529 105.651 17.3936 106.39 17.6748V19.5029C105.651 19.0459 104.825 18.8174 103.911 18.8174C103.39 18.8174 102.968 18.9258 102.646 19.1426C102.323 19.3594 102.162 19.6436 102.162 19.9951C102.162 20.3408 102.279 20.6133 102.514 20.8125C102.754 21.0117 103.302 21.2754 104.157 21.6035C105.212 21.9902 105.93 22.4033 106.311 22.8428C106.697 23.2764 106.891 23.8184 106.891 24.4688C106.891 25.3887 106.516 26.1123 105.766 26.6396C105.016 27.167 104.031 27.4307 102.812 27.4307C101.77 27.4307 100.858 27.249 100.079 26.8857V24.9434ZM108.824 14.1416C108.824 13.7959 108.941 13.5117 109.176 13.2891C109.416 13.0605 109.718 12.9463 110.081 12.9463C110.438 12.9463 110.74 13.0605 110.986 13.2891C111.232 13.5117 111.355 13.7959 111.355 14.1416C111.355 14.4873 111.232 14.7744 110.986 15.0029C110.74 15.2256 110.438 15.3369 110.081 15.3369C109.724 15.3369 109.425 15.2227 109.185 14.9941C108.944 14.7656 108.824 14.4814 108.824 14.1416ZM109.026 27.2021V17.4814H111.092V27.2021H109.026ZM118.993 27.0967C118.612 27.3135 118.064 27.4219 117.35 27.4219C115.504 27.4219 114.581 26.4199 114.581 24.416V19.1162H112.938V17.4814H114.581V15.2051L116.638 14.5811V17.4814H118.993V19.1162H116.638V24.0557C116.638 24.6592 116.743 25.0957 116.954 25.3652C117.171 25.6348 117.517 25.7695 117.991 25.7695C118.36 25.7695 118.694 25.6641 118.993 25.4531V27.0967ZM129.083 22.8955H122.403C122.491 24.8584 123.49 25.8398 125.4 25.8398C126.479 25.8398 127.46 25.5176 128.345 24.873V26.5781C127.478 27.1465 126.338 27.4307 124.926 27.4307C123.484 27.4307 122.356 26.9912 121.542 26.1123C120.728 25.2334 120.32 24.0029 120.32 22.4209C120.32 20.9209 120.757 19.6846 121.63 18.7119C122.509 17.7393 123.607 17.2529 124.926 17.2529C126.238 17.2529 127.258 17.6689 127.984 18.501C128.717 19.3271 129.083 20.4668 129.083 21.9199V22.8955ZM127.079 21.3926C127.073 20.5605 126.883 19.9219 126.508 19.4766C126.133 19.0312 125.6 18.8086 124.908 18.8086C124.281 18.8086 123.736 19.0459 123.273 19.5205C122.811 19.9893 122.523 20.6133 122.412 21.3926H127.079Z" fill="white"/>
<path fill-rule="evenodd" clip-rule="evenodd" d="M144 17.2021C143.204 17.2021 142.441 17.5182 141.879 18.0808C141.316 18.6434 141 19.4065 141 20.2021C141 20.9978 141.316 21.7609 141.879 22.3235C142.441 22.8861 143.204 23.2021 144 23.2021H147C147.265 23.2021 147.52 23.3075 147.707 23.495C147.895 23.6826 148 23.9369 148 24.2021C148 24.4674 147.895 24.7217 147.707 24.9093C147.52 25.0968 147.265 25.2021 147 25.2021H144C142.674 25.2021 141.402 24.6754 140.464 23.7377C139.527 22.8 139 21.5282 139 20.2021C139 18.8761 139.527 17.6043 140.464 16.6666C141.402 15.7289 142.674 15.2021 144 15.2021H147C147.265 15.2021 147.52 15.3075 147.707 15.495C147.895 15.6826 148 15.9369 148 16.2021C148 16.4674 147.895 16.7217 147.707 16.9093C147.52 17.0968 147.265 17.2021 147 17.2021H144ZM145 20.2021C145 19.9369 145.105 19.6826 145.293 19.495C145.48 19.3075 145.735 19.2021 146 19.2021H154C154.265 19.2021 154.52 19.3075 154.707 19.495C154.895 19.6826 155 19.9369 155 20.2021C155 20.4674 154.895 20.7217 154.707 20.9093C154.52 21.0968 154.265 21.2021 154 21.2021H146C145.735 21.2021 145.48 21.0968 145.293 20.9093C145.105 20.7217 145 20.4674 145 20.2021ZM153 15.2021C152.735 15.2021 152.48 15.3075 152.293 15.495C152.105 15.6826 152 15.9369 152 16.2021C152 16.4674 152.105 16.7217 152.293 16.9093C152.48 17.0968 152.735 17.2021 153 17.2021H156C156.796 17.2021 157.559 17.5182 158.121 18.0808C158.684 18.6434 159 19.4065 159 20.2021C159 20.9978 158.684 21.7609 158.121 22.3235C157.559 22.8861 156.796 23.2021 156 23.2021H153C152.735 23.2021 152.48 23.3075 152.293 23.495C152.105 23.6826 152 23.9369 152 24.2021C152 24.4674 152.105 24.7217 152.293 24.9093C152.48 25.0968 152.735 25.2021 153 25.2021H156C157.326 25.2021 158.598 24.6754 159.536 23.7377C160.473 22.8 161 21.5282 161 20.2021C161 18.8761 160.473 17.6043 159.536 16.6666C158.598 15.7289 157.326 15.2021 156 15.2021H153Z" fill="white"/>
</svg>
