<svg width="59" height="49" viewBox="0 0 59 49" fill="none" xmlns="http://www.w3.org/2000/svg">
<rect y="0.370804" width="59" height="48" rx="8" fill="#E8B931"/>
<path d="M33.053 27.9238C33.7086 27.2682 34.2287 26.4898 34.5835 25.6332C34.9383 24.7766 35.1209 23.8585 35.1209 22.9313C35.1209 22.0041 34.9383 21.086 34.5835 20.2294C34.2287 19.3728 33.7086 18.5944 33.053 17.9388C32.3973 17.2832 31.619 16.7631 30.7624 16.4083C29.9058 16.0535 28.9877 15.8708 28.0605 15.8708C27.1333 15.8708 26.2152 16.0535 25.3585 16.4083C24.5019 16.7631 23.7236 17.2832 23.068 17.9388C21.7439 19.2629 21 21.0588 21 22.9313C21 24.8039 21.7439 26.5997 23.068 27.9238C24.3921 29.2479 26.1879 29.9918 28.0605 29.9918C29.933 29.9918 31.7289 29.2479 33.053 27.9238ZM33.053 27.9238L37.5 32.3708" stroke="white" stroke-width="1.5" stroke-linecap="round" stroke-linejoin="round"/>
</svg>
