<svg width="71" height="71" viewBox="0 0 71 71" fill="none" xmlns="http://www.w3.org/2000/svg">
<rect x="0.670898" y="0.170471" width="70" height="70" rx="8" fill="#FFE390" fill-opacity="0.25"/>
<path d="M33.1576 48.2518C33.9656 48.9185 34.8082 49.5278 35.6709 50.1225C36.5354 49.5357 37.374 48.9115 38.1842 48.2518C39.5349 47.1428 40.806 45.9403 41.9882 44.6531C44.7136 41.6731 47.6709 37.3531 47.6709 32.5038C47.6709 30.9279 47.3605 29.3675 46.7575 27.9116C46.1544 26.4557 45.2705 25.1328 44.1562 24.0185C43.0419 22.9042 41.719 22.0203 40.2631 21.4172C38.8072 20.8142 37.2468 20.5038 35.6709 20.5038C34.095 20.5038 32.5346 20.8142 31.0787 21.4172C29.6228 22.0203 28.2999 22.9042 27.1856 24.0185C26.0713 25.1328 25.1874 26.4557 24.5843 27.9116C23.9813 29.3675 23.6709 30.9279 23.6709 32.5038C23.6709 37.3531 26.6282 41.6718 29.3536 44.6531C30.5357 45.9407 31.8069 47.1423 33.1576 48.2518ZM35.6709 36.8371C34.5216 36.8371 33.4194 36.3806 32.6068 35.5679C31.7941 34.7553 31.3376 33.6531 31.3376 32.5038C31.3376 31.3545 31.7941 30.2523 32.6068 29.4397C33.4194 28.627 34.5216 28.1705 35.6709 28.1705C36.8202 28.1705 37.9224 28.627 38.735 29.4397C39.5477 30.2523 40.0042 31.3545 40.0042 32.5038C40.0042 33.6531 39.5477 34.7553 38.735 35.5679C37.9224 36.3806 36.8202 36.8371 35.6709 36.8371Z" fill="#BF6A02"/>
</svg>
