<svg width="71" height="70" viewBox="0 0 71 70" fill="none" xmlns="http://www.w3.org/2000/svg">
<rect x="0.670898" width="70" height="70" rx="8" fill="#FFE390" fill-opacity="0.25"/>
<path d="M22.3379 44.3333C22.3379 46.6 24.0712 48.3333 26.3379 48.3333H45.0046C47.2712 48.3333 49.0046 46.6 49.0046 44.3333V33.6667H22.3379V44.3333ZM45.0046 24.3333H42.3379V23C42.3379 22.2 41.8046 21.6667 41.0046 21.6667C40.2046 21.6667 39.6712 22.2 39.6712 23V24.3333H31.6712V23C31.6712 22.2 31.1379 21.6667 30.3379 21.6667C29.5379 21.6667 29.0046 22.2 29.0046 23V24.3333H26.3379C24.0712 24.3333 22.3379 26.0667 22.3379 28.3333V31H49.0046V28.3333C49.0046 26.0667 47.2712 24.3333 45.0046 24.3333Z" fill="#BF6A02"/>
</svg>
