<svg width="71" height="71" viewBox="0 0 71 71" fill="none" xmlns="http://www.w3.org/2000/svg">
<rect x="0.330078" y="0.170471" width="70" height="70" rx="8" fill="#FFE390" fill-opacity="0.25"/>
<path d="M45.9971 29.8371L35.3304 36.5038L24.6637 29.8371V27.1705L35.3304 33.8371L45.9971 27.1705M45.9971 24.5038H24.6637C23.1837 24.5038 21.9971 25.6905 21.9971 27.1705V43.1705C21.9971 43.8777 22.278 44.556 22.7781 45.0561C23.2782 45.5562 23.9565 45.8371 24.6637 45.8371H45.9971C46.7043 45.8371 47.3826 45.5562 47.8827 45.0561C48.3828 44.556 48.6637 43.8777 48.6637 43.1705V27.1705C48.6637 26.4632 48.3828 25.7849 47.8827 25.2849C47.3826 24.7848 46.7043 24.5038 45.9971 24.5038Z" fill="#BF6A02"/>
</svg>
