<svg width="71" height="70" viewBox="0 0 71 70" fill="none" xmlns="http://www.w3.org/2000/svg">
<rect x="0.330078" width="70" height="70" rx="8" fill="#FFE390" fill-opacity="0.25"/>
<path d="M29.7301 22.2C29.0936 22.2 28.4831 22.4529 28.033 22.9029C27.5829 23.353 27.3301 23.9635 27.3301 24.6V45.4C27.3301 46.0365 27.5829 46.647 28.033 47.0971C28.4831 47.5471 29.0936 47.8 29.7301 47.8H40.9301C41.5666 47.8 42.177 47.5471 42.6271 47.0971C43.0772 46.647 43.3301 46.0365 43.3301 45.4V24.6C43.3301 23.9635 43.0772 23.353 42.6271 22.9029C42.177 22.4529 41.5666 22.2 40.9301 22.2H29.7301ZM33.7301 41.4H36.9301C37.1423 41.4 37.3457 41.4843 37.4958 41.6343C37.6458 41.7843 37.7301 41.9878 37.7301 42.2C37.7301 42.4122 37.6458 42.6157 37.4958 42.7657C37.3457 42.9157 37.1423 43 36.9301 43H33.7301C33.5179 43 33.3144 42.9157 33.1644 42.7657C33.0144 42.6157 32.9301 42.4122 32.9301 42.2C32.9301 41.9878 33.0144 41.7843 33.1644 41.6343C33.3144 41.4843 33.5179 41.4 33.7301 41.4Z" fill="#BF6A02"/>
</svg>
