<svg xmlns="http://www.w3.org/2000/svg" viewBox="0 0 1188.27 507.15"><defs><style>.cls-1{fill:#e48d40;}.cls-2{fill:#fff;}</style></defs><title>Asset 2</title><g id="Layer_2" data-name="Layer 2"><g id="Layer_1-2" data-name="Layer 1"><path class="cls-1" d="M241.92,0H0A154.83,154.83,0,0,0,154.83,154.83H350.11C287.08,131.55,241.93,71,241.92,0Z"/><path class="cls-2" d="M1188.27,154.83H407.09A154.83,154.83,0,0,1,252.26,0h936Z"/><path class="cls-1" d="M448.44,175.83H206.51A154.83,154.83,0,0,0,361.34,330.66H556.63C493.59,307.38,448.44,246.86,448.44,175.83Z"/><path class="cls-2" d="M1188.27,330.66H615.58A154.83,154.83,0,0,1,460.75,175.83h727.52Z"/><path class="cls-1" d="M672.76,352.32H430.84A154.83,154.83,0,0,0,585.67,507.15H781C717.92,483.87,672.76,423.36,672.76,352.32Z"/><path class="cls-2" d="M1188.27,505.83H838.58A154.83,154.83,0,0,1,683.75,351h504.52Z"/></g></g></svg>