<svg width="180" height="52" viewBox="0 0 180 52" fill="none" xmlns="http://www.w3.org/2000/svg">
<g clip-path="url(#clip0_40_387)">
<path d="M29.7233 37.3195C29.7899 37.5002 29.758 37.7047 29.6408 37.8561L28.831 38.8947C28.7458 39.0063 28.6232 39.0806 28.4847 39.1099L27.1875 39.3649C26.9957 39.402 26.7986 39.3383 26.6654 39.1975C26.4816 39.0036 26.1886 38.6875 25.8264 38.2731L26.732 31.2314C28.3329 33.7575 29.3957 36.4456 29.7233 37.3195ZM25.2031 37.5427L26.13 30.3283C26.2712 30.5275 26.4071 30.7294 26.5402 30.9339L25.6 38.0128C25.4748 37.8641 25.3416 37.7074 25.2031 37.5427ZM23.8499 35.8135L24.697 28.546C25.1338 29.0135 25.5467 29.5235 25.9356 30.0574L24.9793 37.2691C24.6224 36.8308 24.2388 36.342 23.8499 35.8135ZM20.5256 26.4688C20.5789 26.2695 20.7787 26.1474 20.9811 26.1899C21.9134 26.3758 22.7924 26.8566 23.6102 27.5206L22.8164 34.3153C21.2075 31.8211 19.881 28.8541 20.5256 26.4688ZM24.3826 27.696C23.2186 26.5856 22.0279 25.9083 20.8399 25.6852C20.531 25.6267 20.2193 25.818 20.1341 26.1208C19.8091 27.2736 19.8863 28.6336 20.3685 30.1636C20.76 31.4094 21.4233 32.7774 22.3396 34.233C23.9298 36.7591 25.821 38.8336 26.5615 39.6092C26.7453 39.8031 27.017 39.8855 27.2834 39.8324L28.6632 39.5508C28.7591 39.5295 28.8523 39.495 28.9322 39.4445C29.0148 39.3941 29.0894 39.3277 29.148 39.2533L30.019 38.151C30.1868 37.9385 30.2321 37.6595 30.1415 37.4099C29.7713 36.4058 28.7431 33.8 27.1742 31.2633C26.2712 29.7997 25.3309 28.5991 24.3826 27.696Z" fill="black"/>
<mask id="mask0_40_387" style="mask-type:luminance" maskUnits="userSpaceOnUse" x="0" y="38" width="44" height="7">
<path d="M0.5 38.908H43.46V44.4223H0.5V38.908Z" fill="white"/>
</mask>
<g mask="url(#mask0_40_387)">
<path d="M0.523987 41.713C0.523987 41.713 0.675817 41.6359 0.960832 41.4952C1.03275 41.4606 1.11 41.4208 1.20056 41.3809C1.29113 41.3411 1.38969 41.2986 1.49623 41.2508C1.54951 41.2295 1.60545 41.2056 1.66138 41.1791C1.71998 41.1552 1.77858 41.1286 1.83985 41.1047C1.96504 41.0569 2.09556 41.0064 2.23674 40.9506C2.37525 40.8948 2.52442 40.8417 2.67891 40.7886C2.83607 40.7355 2.99855 40.6744 3.1717 40.6239C3.34483 40.5681 3.5233 40.5097 3.71242 40.4566C3.90155 40.4008 4.096 40.3477 4.29844 40.2919C5.1082 40.082 6.04049 39.8881 7.06335 39.7447C8.08887 39.6013 9.20762 39.5056 10.3903 39.4684C11.573 39.4339 12.8169 39.4525 14.0955 39.5295C15.3767 39.6039 16.6873 39.7341 18.0084 39.8988C19.3296 40.0634 20.6615 40.2627 21.9827 40.4752C23.2905 40.685 24.5984 40.8975 25.8876 41.1073C27.1689 41.3066 28.4261 41.5005 29.6434 41.6572C29.718 41.6678 29.7953 41.6758 29.8699 41.6864C29.9444 41.6944 30.0217 41.705 30.0963 41.713C30.2481 41.7342 30.3973 41.7528 30.5464 41.7714C30.6956 41.7873 30.8448 41.8033 30.9913 41.8219C31.1404 41.8405 31.2869 41.8564 31.4335 41.8697C32.0195 41.9361 32.5895 41.9866 33.1489 42.0344C34.265 42.122 35.3224 42.1725 36.3 42.1858C37.2803 42.2017 38.1806 42.1752 38.9823 42.1327C39.1848 42.1194 39.3766 42.1061 39.5657 42.0928C39.7522 42.0769 39.9333 42.0636 40.1091 42.0477C40.2822 42.037 40.4474 42.0158 40.6099 41.9998C40.767 41.9813 40.9215 41.9706 41.0654 41.9494C41.3557 41.9122 41.6167 41.883 41.8432 41.8484C42.0696 41.8166 42.264 41.7927 42.4185 41.7634C42.7328 41.7156 42.9006 41.6917 42.9006 41.6917C42.9006 41.6917 42.7568 41.7794 42.4771 41.9334C42.4079 41.9706 42.3279 42.0158 42.2427 42.0609C42.1548 42.1034 42.0589 42.1539 41.955 42.2044C41.9018 42.2309 41.8485 42.2575 41.7925 42.2867C41.7366 42.3133 41.678 42.3425 41.6194 42.3691C41.4969 42.4222 41.369 42.4806 41.2305 42.5417C41.0947 42.6055 40.9482 42.6666 40.7963 42.7277C40.6418 42.7861 40.482 42.8552 40.3115 42.9163C40.1411 42.98 39.9626 43.0464 39.7788 43.1102C39.5923 43.1712 39.4005 43.2323 39.2008 43.2961C38.3963 43.5431 37.4747 43.7769 36.4518 43.9575C35.4316 44.1381 34.3129 44.2709 33.1302 44.3427C31.9449 44.4091 30.6956 44.4223 29.4117 44.3692C28.1278 44.3188 26.8093 44.2098 25.4801 44.0584C25.1471 44.0186 24.8142 43.9788 24.4839 43.9363C24.1483 43.8938 23.818 43.8459 23.4823 43.8008C22.8191 43.7078 22.1505 43.6016 21.4899 43.498C20.166 43.2855 18.8555 43.057 17.5716 42.8392C16.2877 42.6241 15.0278 42.4142 13.8105 42.2309C12.5958 42.045 11.4211 41.8909 10.3051 41.7661C9.18897 41.6466 8.12882 41.5616 7.14858 41.5111C6.16835 41.4633 5.26536 41.45 4.46092 41.4606C4.26114 41.4659 4.0667 41.4713 3.87757 41.4739C3.68845 41.4819 3.50732 41.4872 3.33418 41.4952C3.15838 41.4978 2.99056 41.5111 2.83074 41.5217C2.66826 41.5323 2.51376 41.535 2.36992 41.5483C2.07958 41.5722 1.81588 41.5881 1.58946 41.6094C1.36305 41.6333 1.1686 41.6466 1.00878 41.6652C0.694463 41.6997 0.523987 41.713 0.523987 41.713Z" fill="#367DAE"/>
</g>
<path d="M12.127 24.0861L12.0711 23.8098L12.1297 23.9001C12.1297 23.9532 12.127 24.017 12.127 24.0861ZM22.5554 19.7378L22.558 19.7351L22.5234 19.9131C22.5341 19.8547 22.5447 19.7936 22.5554 19.7378ZM42.9566 39.2187C42.8021 39.2532 42.6103 39.2851 42.3866 39.3303C42.1628 39.3728 41.9018 39.4153 41.6141 39.4657C41.4729 39.4923 41.3184 39.5109 41.1613 39.5348C41.0014 39.5587 40.8363 39.5879 40.6631 39.6092C40.49 39.6304 40.3089 39.6543 40.1224 39.6782C39.936 39.6968 39.7415 39.7207 39.5417 39.742C38.7426 39.8243 37.845 39.8907 36.8674 39.92C35.8871 39.9492 34.8297 39.9465 33.7109 39.9093C33.1489 39.8881 32.5762 39.8642 31.9875 39.827C31.841 39.8164 31.6945 39.8084 31.5453 39.7978C31.3962 39.7872 31.247 39.7765 31.0978 39.7659C30.9487 39.7553 30.7968 39.742 30.645 39.7314C30.5704 39.7261 30.4932 39.7181 30.4186 39.7128C30.3413 39.7075 30.2668 39.6995 30.1895 39.6942C28.9669 39.5906 27.7043 39.4578 26.4124 39.3143C25.1178 39.1656 23.7993 39.0142 22.4835 38.8628C21.9614 38.8017 21.4366 38.7459 20.9119 38.6928C21.3913 38.2067 22.1292 37.7286 23.2426 37.5054C23.2426 37.5054 20.9225 37.7551 20.3152 38.4059L20.8213 37.2531L20.0542 38.0553C20.0542 38.0553 20.0622 35.8001 19.4575 35.6009L19.2045 37.8561C19.2045 37.8561 19.1512 37.7179 19.0393 37.5134C18.994 37.1575 18.9487 36.7617 18.9194 36.3367C18.9088 36.1853 18.8981 36.0312 18.8901 35.8718C18.8795 35.5053 18.8768 35.1201 18.8875 34.7164C18.9008 34.1373 18.9354 33.5237 18.9967 32.8915C19.0047 32.8118 19.0127 32.7322 19.0207 32.6551C19.0287 32.5728 19.0393 32.4931 19.0473 32.4134C19.0659 32.254 19.0846 32.092 19.1086 31.93C19.1192 31.8476 19.1299 31.7679 19.1432 31.6856L19.1512 31.6245L19.1538 31.6086V31.6006C19.1512 31.6059 19.1565 31.5926 19.1538 31.6006L19.1592 31.5687C19.1645 31.5289 19.1725 31.4864 19.1778 31.4439C19.1911 31.3589 19.2071 31.2765 19.2204 31.1915C19.2338 31.1118 19.2497 31.0322 19.2631 30.9498C19.279 30.8701 19.2924 30.7904 19.311 30.7081C19.327 30.6257 19.343 30.5434 19.3616 30.4611L19.3856 30.3389L19.4149 30.214C19.4335 30.1317 19.4522 30.0493 19.4708 29.967C19.5108 29.8023 19.5507 29.6376 19.5934 29.4729C19.6386 29.3082 19.6786 29.1409 19.7265 28.9762C19.9103 28.3175 20.1181 27.6587 20.3339 27.0106C20.5523 26.3651 20.7734 25.7276 20.9891 25.1087C21.2049 24.4925 21.4127 23.8922 21.5991 23.3184C21.7856 22.7473 21.9534 22.2001 22.0946 21.6954C22.2357 21.1881 22.3503 20.7206 22.4408 20.3036C22.4568 20.2318 22.4701 20.1628 22.4861 20.0964L22.1611 21.6928L22.6273 20.7365C22.4755 21.4856 22.4728 22.75 22.4808 22.7712C22.4914 22.7951 22.7418 21.4989 22.7418 21.4989C22.6593 21.9956 22.8537 23.4725 22.9043 23.5495C22.9523 23.6212 23.0615 22.7739 23.0615 22.7739L23.2027 23.9293C23.2027 23.9293 23.8606 23.0687 23.9671 22.3568L23.9831 22.1789C23.9831 22.2373 23.9751 22.2957 23.9671 22.3568L23.8899 23.252C23.8899 23.252 24.4519 22.1098 24.2362 20.9357L24.4812 21.8681C24.4812 21.8681 24.6224 20.7657 24.1722 20.0193L24.5105 20.1893L24.0763 19.0179C23.9671 18.8692 23.8446 18.7204 23.7061 18.5664C23.8712 18.7417 24.0977 18.9887 24.3587 19.2915L24.0577 18.6354L24.8275 19.8547L24.8222 19.0047C25.4295 19.4482 26.202 21.7857 26.202 21.7857L25.9995 20.3806C26.5722 21.0792 26.9292 23.1404 26.9292 23.1404L26.8759 21.7273C27.2754 22.1311 27.2781 24.0356 27.2781 24.0356C27.2781 24.0356 29.449 18.2476 23.8286 17.4906C23.8286 17.4906 24.4573 17.3737 25.3283 17.302L24.5771 17.1532C25.1258 16.8478 27.1263 17.2595 27.1263 17.2595L25.853 16.8265C26.5456 16.6326 28.4981 17.4242 28.4981 17.4242L27.6936 16.9434C28.5513 16.9939 29.6541 17.8572 29.6541 17.8572C29.6541 17.8572 27.081 14.3217 23.7354 16.7309C23.7354 16.7309 23.9325 16.529 24.2202 16.2076C24.4493 15.9951 24.7449 15.7534 25.0885 15.5595L24.0977 15.8543L25.9489 14.6882C25.9116 14.6936 25.8743 14.7015 25.8344 14.7148L25.006 14.8954C24.9873 14.8503 25.2004 14.4678 25.5067 14.0587C25.8291 13.6284 26.2579 13.2937 26.7427 13.0573C26.78 13.0387 26.8173 13.0201 26.8519 12.9989C26.8439 12.9962 26.8359 12.9936 26.8253 12.9936C26.8626 12.9909 26.8839 12.9909 26.8839 12.9909C26.8626 12.9909 26.8439 12.9909 26.8226 12.9909C26.146 12.8422 25.3123 13.1397 24.7689 13.5195C23.5596 14.335 22.9869 15.7826 22.9869 15.7826C23.1041 15.1212 23.3678 12.7704 21.3461 12.0001L21.8309 12.9484L21.4766 12.5287C21.4766 12.5287 22.2357 14.3243 22.1638 14.6032L21.7003 13.8382C21.7003 13.8382 22.2091 15.2168 22.0786 16.0137C22.0786 16.0137 20.7014 13.8064 18.6797 13.4982C18.6797 13.4982 19.4389 14.1039 19.6653 14.5953L18.9754 14.0747L19.9982 15.2487L19.3856 14.8742L19.7026 15.4904C19.7026 15.4904 18.8928 14.8981 18.2722 15.5117C18.2722 15.5117 18.9647 15.4373 19.4628 15.8464L18.4746 15.6472L19.7878 16.1811L19.1858 16.1253C19.1858 16.1253 20.3285 16.3723 20.4697 16.5848L19.7079 16.4732L20.7654 17.1825L21.2875 17.5331C20.8479 17.2436 17.2972 15.0282 15.5818 17.7456C15.5818 17.7456 16.2158 17.1532 17.0655 17.2489L16.1572 17.7775C16.1572 17.7775 17.6489 17.1293 18.3015 17.1772L17.3798 17.8386C17.3798 17.8386 18.4799 17.3153 19.5534 17.4295L18.9354 17.6234L20.238 17.7297C20.238 17.7297 18.2935 17.7536 17.3132 19.6103C17.1401 19.9184 16.9829 20.2823 16.8471 20.7126L17.8753 19.8865L17.5237 20.5665C17.5237 20.5665 18.2482 19.4668 19.1006 19.0445L18.7463 19.7457L20.1927 18.5637L19.9263 19.0232C20.1261 18.9515 20.3179 18.9276 20.4777 18.9914L19.7159 19.6714C19.3856 19.9662 19.0926 20.3036 18.8582 20.6807C18.3574 21.4989 18.0644 22.5375 18.4453 23.754C18.4453 23.754 18.709 22.0859 19.327 21.5945L19.0659 22.7101C19.0659 22.7101 19.6599 20.88 20.2566 20.2823L20.0062 21.3076L20.8426 19.7404L20.7094 20.3886C20.7094 20.3886 21.1383 19.0897 22.1532 18.7629C22.1318 18.8612 22.1079 18.9701 22.0812 19.0923C22.0626 19.1667 22.0439 19.2437 22.0253 19.3261C22.0146 19.3659 22.004 19.4084 21.9933 19.4509C21.9827 19.4934 21.972 19.5359 21.9587 19.5811C21.9374 19.6687 21.9134 19.7617 21.8868 19.8573C21.8602 19.9529 21.8309 20.0512 21.8042 20.1522C21.7163 20.4523 21.6151 20.779 21.4979 21.127L20.6881 23.2839C20.4884 23.7753 20.2726 24.2853 20.0488 24.8139C19.7931 25.4142 19.5268 26.0384 19.2631 26.6759C18.9993 27.3161 18.7436 27.9748 18.5092 28.6442C18.448 28.8115 18.392 28.9789 18.3361 29.1489C18.2802 29.3162 18.2269 29.4862 18.1736 29.6562C18.147 29.7412 18.123 29.8262 18.0964 29.9112L18.0591 30.0387L18.0218 30.1689C17.9978 30.2539 17.9738 30.3389 17.9499 30.4239C17.9259 30.5089 17.9072 30.5992 17.8833 30.6842C17.862 30.7718 17.8406 30.8595 17.8167 30.9445C17.798 31.0295 17.7794 31.1118 17.7607 31.1942C17.7501 31.2367 17.7421 31.2765 17.7314 31.319L17.7234 31.3482L17.7155 31.3881L17.7021 31.4518C17.6861 31.5368 17.6675 31.6218 17.6489 31.7068C17.6142 31.8768 17.5823 32.0442 17.5503 32.2115C17.537 32.2965 17.5183 32.3789 17.505 32.4612C17.4917 32.5462 17.4784 32.6286 17.4651 32.7109C17.3559 33.375 17.2759 34.0204 17.22 34.6367C17.18 35.059 17.1561 35.4681 17.1401 35.8559C17.1108 35.8825 17.0948 35.8957 17.0628 35.9223C16.9883 35.9117 16.911 35.9037 16.8338 35.9011C16.8338 35.9011 16.9483 35.9382 17.1268 36.0472C17.1214 36.1454 17.1161 36.2437 17.1108 36.3393C17.0842 36.8015 17.0788 37.2292 17.0788 37.617C16.9723 37.4709 16.8577 37.3142 16.7432 37.1442C16.7405 36.852 16.7592 36.5572 16.8338 36.3526C16.8338 36.3526 16.7059 36.4934 16.5781 36.7617C16.5381 36.7643 16.5301 36.767 16.4928 36.7697C16.4369 36.682 16.3809 36.5943 16.3223 36.5067C16.2664 36.4164 16.2105 36.3234 16.1519 36.2304C16.1226 36.1826 16.0959 36.1375 16.0666 36.0897C16.0373 36.0418 16.008 35.994 15.9814 35.9436C15.9228 35.8479 15.8668 35.747 15.8082 35.6487C15.7523 35.5451 15.6937 35.4442 15.6378 35.3406C15.6085 35.2875 15.5792 35.2343 15.5499 35.1839C15.5232 35.1281 15.4939 35.075 15.4673 35.0218C15.4114 34.9156 15.3528 34.8067 15.2968 34.6951C15.0757 34.2542 14.8546 33.792 14.6522 33.3112C14.6016 33.1917 14.5483 33.0722 14.4977 32.95C14.4498 32.8278 14.4018 32.7056 14.3539 32.5834C14.3299 32.5223 14.3033 32.4612 14.2793 32.4001C14.2553 32.339 14.234 32.2753 14.21 32.2142C14.1648 32.0893 14.1195 31.9645 14.0742 31.8397C14.0289 31.7148 13.9889 31.59 13.9463 31.4625C13.9037 31.3376 13.8611 31.2128 13.8211 31.0853C13.7412 30.8329 13.6666 30.5806 13.5894 30.3309C13.5228 30.0759 13.4535 29.8262 13.387 29.5792C13.3284 29.3268 13.2671 29.0798 13.2111 28.8381C13.1579 28.5937 13.1099 28.352 13.0593 28.1156C13.0487 28.0572 13.0353 27.9987 13.0247 27.9403C13.014 27.8818 13.0034 27.8234 12.9954 27.765C12.9741 27.6481 12.9554 27.5339 12.9341 27.4223C12.9155 27.3081 12.8942 27.1965 12.8782 27.085C12.8622 26.9761 12.8462 26.8672 12.8302 26.7582C12.8169 26.652 12.8009 26.5457 12.785 26.4448C12.7796 26.3917 12.7716 26.3412 12.7636 26.2907C12.7583 26.2403 12.753 26.1872 12.7477 26.1393C12.7264 25.9401 12.705 25.7489 12.6837 25.5656C12.6784 25.5204 12.6731 25.4753 12.6678 25.4301C12.6651 25.385 12.6598 25.3425 12.6571 25.3C12.6491 25.2123 12.6438 25.1273 12.6358 25.0476C12.6251 24.8829 12.6118 24.7315 12.6012 24.5907C12.5958 24.519 12.5905 24.4526 12.5878 24.3862C12.5852 24.3225 12.5799 24.2614 12.5772 24.2029C12.5745 24.0993 12.5692 24.0064 12.5665 23.924C13.2058 24.3809 13.3204 25.3531 13.3204 25.3531V24.8245L13.7252 26.1845L13.6933 25.3398C14.0662 25.9029 14.2393 27.4303 14.2393 27.4303L14.2127 26.5165C14.6176 27 14.5616 28.3467 14.5616 28.3467C15.0571 27.4489 14.9878 26.5829 14.7215 25.8604C14.6016 25.5337 14.4285 25.2309 14.2207 24.952L13.7252 24.2932C13.8611 24.2667 14.0103 24.3172 14.1541 24.4048L14.0182 24.0011L14.9639 25.1565L14.7987 24.5509C15.398 25.0157 15.7923 25.9906 15.7923 25.9906L15.6245 25.4036L16.2984 26.2137C16.2611 25.8551 16.1971 25.5443 16.1092 25.2761C15.6378 23.6637 14.1168 23.3423 14.1168 23.3423L15.1556 23.4645L14.7002 23.2122C15.5605 23.2945 16.3383 23.8762 16.3383 23.8762L15.723 23.2122C16.2424 23.2759 17.3079 24.0197 17.3079 24.0197L16.6793 23.4645C17.3612 23.5203 17.7661 24.0861 17.7661 24.0861C16.8524 21.6848 13.7146 22.8642 13.3257 23.0209L13.7892 22.8297L14.7321 22.4392L14.1168 22.4073C14.2606 22.2612 15.1983 22.2479 15.1983 22.2479L14.7161 22.1975L15.8322 21.985H15.0251C15.478 21.7432 16.0134 21.9106 16.0134 21.9106C15.6218 21.3315 14.8919 21.6689 14.8919 21.6689L15.2382 21.2359L14.7002 21.4325L15.6884 20.6728L15.0651 20.9729C15.3208 20.6223 16.0134 20.269 16.0134 20.269C14.3778 20.192 12.9474 21.7061 12.9474 21.7061C12.9714 21.0606 13.5894 20.0592 13.5894 20.0592L13.1046 20.5851C13.0939 20.3567 13.9756 19.0684 13.9756 19.0684L13.6293 19.342L14.1621 18.6726C12.452 18.9595 12.2842 20.8428 12.2709 21.382C12.2709 21.382 12.0524 20.1575 11.2347 19.3287C10.8698 18.9436 10.2624 18.5797 9.7084 18.5903C9.69241 18.585 9.67643 18.5823 9.66045 18.5797C9.66045 18.5797 9.67643 18.585 9.70573 18.5903C9.69774 18.5903 9.68975 18.5903 9.68442 18.5903C9.7084 18.6142 9.73503 18.6354 9.76433 18.6567C10.0946 18.9064 10.369 19.2198 10.5475 19.589C10.7366 19.9768 10.8511 20.3354 10.8271 20.37L10.2092 20.0964C10.1772 20.0804 10.1506 20.0672 10.1239 20.0592L11.3892 21.2625L10.6593 20.8773C10.8964 21.0818 11.0909 21.3182 11.2347 21.5201C11.4078 21.8203 11.533 22.0089 11.533 22.0089C9.29286 19.5917 6.71174 21.9611 6.71174 21.9611C6.71174 21.9611 7.71329 21.4564 8.3952 21.552L7.68665 21.8043C7.68665 21.8043 9.34347 21.4882 9.8549 21.7512L8.78942 21.8893C8.78942 21.8893 10.4223 21.8814 10.8058 22.2054H10.1932C10.8644 22.3993 11.3386 22.5879 11.3386 22.5879C6.8103 22.2984 7.5881 27.1806 7.5881 27.1806C7.5881 27.1806 7.89442 25.6851 8.27267 25.4328L8.0063 26.5325C8.0063 26.5325 8.61362 24.9732 9.17299 24.5137L8.79209 25.5842C8.79209 25.5842 9.76966 23.8736 10.3184 23.6186L10.1772 24.2853L10.9763 23.4512L10.6354 23.9187C10.8884 23.7222 11.1042 23.5628 11.2613 23.4512C11.1281 23.5495 11.0083 23.6478 10.8991 23.7487L10.3717 24.5987L10.6647 24.5164C10.1932 25.0343 10.1293 25.9189 10.1293 25.9189L10.4702 25.2256C10.1133 26.1128 10.369 27.0982 10.369 27.0982L10.4516 26.3837C10.4542 26.3332 10.4596 26.2881 10.4702 26.2429L10.4516 26.3837C10.4223 26.9601 10.8032 27.7384 10.8032 27.7384L11.0962 26.8539C11.0962 26.8539 11.0482 27.5365 11.0962 27.4861C11.1468 27.4329 11.5357 26.3067 11.5517 25.9029C11.5517 25.9029 11.541 26.9575 11.5517 26.9415C11.5623 26.9256 11.7621 25.9348 11.7621 25.3239L11.9752 26.1447V24.5509C11.9752 24.5509 12.0471 24.6067 12.119 24.6625C12.119 24.6997 12.1217 24.7368 12.1217 24.774C12.1244 24.9175 12.1244 25.0715 12.1297 25.2336C12.1297 25.3159 12.1297 25.4009 12.1324 25.4886C12.1324 25.5337 12.135 25.5762 12.1377 25.6214C12.1403 25.6665 12.1403 25.7117 12.143 25.7568C12.151 25.9428 12.1617 26.1367 12.1723 26.3386C12.175 26.389 12.175 26.4395 12.1803 26.49C12.183 26.5431 12.1883 26.5936 12.191 26.6467C12.1989 26.7529 12.2096 26.8592 12.2176 26.9681C12.2256 27.077 12.2336 27.1886 12.2442 27.3001C12.2522 27.4117 12.2682 27.5259 12.2789 27.6428C12.2922 27.757 12.3055 27.8739 12.3188 27.9934C12.3241 28.0518 12.3321 28.1129 12.3375 28.1714C12.3454 28.2325 12.3561 28.2909 12.3641 28.352C12.3987 28.5937 12.4307 28.8434 12.4706 29.0931C12.5133 29.3428 12.5585 29.5978 12.6038 29.8554C12.6544 30.1131 12.7077 30.3734 12.7636 30.6337C12.8249 30.894 12.8835 31.1597 12.9501 31.4226C12.9847 31.5528 13.0194 31.6856 13.054 31.8157C13.0886 31.9486 13.1232 32.0787 13.1632 32.2089C13.2005 32.3417 13.2404 32.4718 13.2804 32.602C13.2991 32.6684 13.3177 32.7322 13.339 32.7986C13.3603 32.8623 13.379 32.9261 13.4003 32.9925C13.4429 33.1226 13.4855 33.2501 13.5281 33.3803C13.5707 33.5078 13.6187 33.6353 13.664 33.7628C13.8398 34.2701 14.0422 34.7615 14.242 35.237C14.2953 35.3539 14.3459 35.4707 14.3965 35.585C14.4231 35.6434 14.4498 35.7018 14.4737 35.7576C14.5004 35.8161 14.5297 35.8718 14.5536 35.9276C14.6069 36.0392 14.6602 36.1507 14.7135 36.2597C14.7667 36.3686 14.8227 36.4775 14.876 36.5811C14.9026 36.6342 14.9292 36.6873 14.9559 36.7404C14.9825 36.7909 15.0091 36.8414 15.0358 36.8945C15.0917 36.9954 15.145 37.0964 15.1983 37.1947C15.2515 37.2903 15.3048 37.3886 15.3581 37.4815C15.3847 37.5293 15.4114 37.5745 15.438 37.6223C15.4646 37.6675 15.4913 37.7126 15.5179 37.7578C15.5366 37.7897 15.5579 37.8242 15.5765 37.8561C15.1636 37.5028 14.519 37.0831 13.8558 37.2026C13.8558 37.2026 14.9985 37.5214 15.1077 38.289C15.0331 38.289 14.9585 38.2864 14.8839 38.2837C14.6016 38.1615 14.0982 38.0207 13.6134 38.2757C12.6651 38.2811 11.7408 38.3209 10.8564 38.3873C9.67643 38.4776 8.56301 38.6237 7.54814 38.815C6.53061 39.0036 5.60898 39.24 4.80987 39.487C4.61009 39.5534 4.41564 39.6145 4.23185 39.6782C4.04539 39.7393 3.86959 39.8057 3.69911 39.8695C3.52863 39.9306 3.36881 39.997 3.21432 40.0581C3.06249 40.1165 2.91598 40.1776 2.78014 40.2387C2.64162 40.2998 2.51377 40.3582 2.39124 40.4114C2.32997 40.4379 2.27403 40.4672 2.21543 40.4937C2.1595 40.5229 2.10622 40.5495 2.05295 40.5734C1.94907 40.6265 1.85317 40.6717 1.76527 40.7168C1.67737 40.7593 1.60012 40.8045 1.53087 40.8417C1.25118 40.9931 1.10468 41.0807 1.10468 41.0807C1.10468 41.0807 1.15795 41.0728 1.26183 41.0568C1.33375 41.025 1.41366 40.9904 1.49624 40.9559C1.54951 40.932 1.60545 40.9081 1.66139 40.8842C1.71999 40.8576 1.77859 40.8311 1.83985 40.8072C1.96505 40.7593 2.09557 40.7089 2.23674 40.6557C2.37526 40.6 2.52442 40.5468 2.67892 40.4911C2.83607 40.4379 2.99856 40.3795 3.1717 40.3264C3.34484 40.2706 3.52331 40.2148 3.71243 40.159C3.90155 40.1059 4.096 40.0528 4.29844 39.997C5.1082 39.7845 6.04049 39.5906 7.06335 39.4498C8.08887 39.3064 9.20762 39.2107 10.3903 39.1709C11.573 39.1364 12.8169 39.1576 14.0955 39.2347C15.3767 39.309 16.6873 39.4365 18.0085 39.6012C19.3296 39.7686 20.6615 39.9651 21.9827 40.1776C23.2906 40.3901 24.5984 40.6 25.8877 40.8098C27.1689 41.0117 28.4261 41.2029 29.6435 41.3597C29.718 41.3703 29.7953 41.3809 29.8699 41.3889C29.9445 41.3995 30.0217 41.4075 30.0963 41.4181C30.2481 41.4367 30.3973 41.4553 30.5464 41.4739C30.6956 41.4898 30.8448 41.5084 30.9913 41.5243C31.1404 41.5429 31.287 41.5589 31.4335 41.5748C32.0195 41.6386 32.5895 41.689 33.1489 41.7368C33.1595 41.7368 33.1702 41.7395 33.1808 41.7395C35.1067 41.8882 37.0432 41.6943 38.8998 41.1737C39.278 41.0675 39.6057 40.9718 39.8134 40.8975C40.0105 40.8231 40.1997 40.7514 40.3835 40.6823C40.5646 40.6106 40.7377 40.5362 40.9055 40.4645C41.0734 40.3981 41.2305 40.3211 41.3797 40.2547C41.5315 40.1856 41.6753 40.1192 41.8085 40.0501C41.9417 39.9837 42.0669 39.92 42.1868 39.8589C42.2454 39.8297 42.3013 39.7978 42.3573 39.7686C42.4105 39.7367 42.4638 39.7075 42.5144 39.6782C42.6156 39.6225 42.7089 39.5693 42.7941 39.5215C42.8793 39.4737 42.9539 39.4259 43.0232 39.3834C43.2949 39.2161 43.436 39.1231 43.436 39.1231C43.436 39.1231 43.2682 39.155 42.9566 39.2187Z" fill="black"/>
<path d="M8.21141 14.6006C13.4962 8.65587 22.4941 7.89618 28.6978 12.7226C28.4901 12.5181 28.2743 12.3162 28.0506 12.1196C21.8388 6.68227 12.3614 7.27196 6.88222 13.4371C1.40301 19.6049 1.99702 29.0134 8.20874 34.4507C8.43249 34.6473 8.65891 34.8332 8.89065 35.0138C3.29157 29.5048 2.92931 20.5479 8.21141 14.6006Z" fill="black"/>
<path d="M95.1559 14.5438C95.1559 15.0617 95.0494 15.601 94.8363 16.1588C94.6232 16.7113 94.3035 17.2186 93.8774 17.6781C93.4512 18.1324 92.9184 18.5069 92.2791 18.8044C91.6452 19.1019 90.8993 19.2506 90.0416 19.2506H85.4388V9.89001H89.69C90.4705 9.89001 91.195 10.0016 91.8636 10.2194C92.5295 10.4399 93.1049 10.756 93.5897 11.165C94.0718 11.5688 94.4527 12.0575 94.7297 12.6313C95.0121 13.1997 95.1559 13.8372 95.1559 14.5438ZM93.1848 14.3313C93.1848 11.6113 91.9009 10.2513 89.3384 10.2513H87.1435V18.8894H88.8696C89.6714 18.8894 90.3506 18.7831 90.9047 18.5706C91.4587 18.3581 91.9009 18.058 92.2365 17.6675C92.5775 17.2717 92.8172 16.7936 92.961 16.2331C93.1102 15.6674 93.1848 15.0325 93.1848 14.3313Z" fill="black"/>
<path d="M106.99 15.5319C106.99 16.9503 106.652 17.973 105.978 18.6025C105.301 19.2347 104.254 19.5481 102.835 19.5481C102.272 19.5481 101.721 19.5083 101.183 19.4313C100.642 19.3516 100.16 19.2028 99.734 18.9744C99.3078 18.7406 98.9589 18.4192 98.6898 18.0075C98.4261 17.5985 98.2956 17.0592 98.2956 16.3925V9.89001H100V16.3819C100 16.8441 100.078 17.2478 100.235 17.5931C100.389 17.9411 100.608 18.2306 100.885 18.4644C101.167 18.6981 101.497 18.8761 101.876 18.9956C102.259 19.1178 102.675 19.1763 103.122 19.1763C104.35 19.1763 105.237 18.8867 105.786 18.305C106.34 17.726 106.617 16.8069 106.617 15.5531V9.89001H106.99V15.5319Z" fill="black"/>
<path d="M120.052 16.7644C120.052 17.3169 119.886 17.7605 119.561 18.0925C119.242 18.4272 118.853 18.6769 118.4 18.8469C117.945 19.0169 117.468 19.1285 116.972 19.1763C116.474 19.2267 116.045 19.2506 115.683 19.2506H110.782V10.9844C110.782 10.8649 110.793 10.74 110.814 10.6125C110.84 10.4797 110.88 10.3575 110.931 10.2513C110.987 10.145 111.059 10.06 111.144 9.99626C111.235 9.9272 111.347 9.89001 111.474 9.89001H115.331C115.678 9.89001 116.072 9.91923 116.514 9.97501C116.954 10.0335 117.372 10.1397 117.771 10.2938C118.168 10.4425 118.501 10.655 118.773 10.9313C119.042 11.2022 119.178 11.5528 119.178 11.9831C119.178 12.3869 119.074 12.7242 118.869 12.9925C118.661 13.2635 118.4 13.4786 118.08 13.6406C117.761 13.8053 117.414 13.9222 117.047 13.9913C116.685 14.063 116.344 14.1135 116.024 14.14V14.1719C116.421 14.1878 116.855 14.2356 117.324 14.3206C117.793 14.4056 118.224 14.5491 118.624 14.7456C119.029 14.9369 119.364 15.1999 119.636 15.5319C119.913 15.8666 120.052 16.2756 120.052 16.7644ZM118.091 16.605C118.091 16.1667 117.979 15.8055 117.761 15.5213C117.548 15.2317 117.281 15.006 116.962 14.8413C116.647 14.6713 116.312 14.5517 115.949 14.48C115.592 14.411 115.273 14.3738 114.99 14.3738H113.073L113.243 14.0125H114.298C115.334 14.0125 116.099 13.8372 116.589 13.4813C117.079 13.128 117.324 12.6472 117.324 12.0363C117.324 11.513 117.113 11.0853 116.695 10.7506C116.282 10.4186 115.678 10.2513 114.884 10.2513H113.051C112.86 10.2513 112.716 10.3442 112.625 10.5275C112.532 10.7135 112.487 10.9047 112.487 11.1013V18.8894H115.577C116.344 18.8894 116.954 18.7088 117.409 18.3475C117.862 17.9863 118.091 17.4072 118.091 16.605Z" fill="black"/>
<path d="M130.608 19.2507L128.381 14.9794H124.769L122.617 19.2507H122.148L126.942 9.93253C127.062 9.70675 127.179 9.59253 127.294 9.59253C127.385 9.59253 127.47 9.64565 127.55 9.7519C127.635 9.85815 127.715 9.99362 127.795 10.1557L132.685 19.2507H130.608ZM126.772 11.9088C126.671 11.7335 126.593 11.6432 126.538 11.6432C126.487 11.6432 126.447 11.6644 126.42 11.7069C126.399 11.7494 126.378 11.7972 126.356 11.845L124.961 14.6075H128.189L126.772 11.9088Z" fill="black"/>
<path d="M135.582 19.2506V9.89001H137.287V19.2506H135.582Z" fill="black"/>
<path d="M55.6093 39.6744V31.8756C55.6093 31.7269 55.5773 31.6525 55.5134 31.6525C55.4708 31.6525 55.4282 31.6737 55.3855 31.7162C55.3482 31.7534 55.3216 31.7906 55.3003 31.8331L51.4007 39.6744H51.0597L47.2027 31.8756C47.1388 31.7269 47.0695 31.6525 47.0002 31.6525C46.9283 31.6525 46.8937 31.7322 46.8937 31.8862V39.6744H46.5314V31.015C46.5314 30.7122 46.6167 30.4731 46.7871 30.3031C46.9576 30.1278 47.1601 30.0375 47.3945 30.0375C47.5916 30.0375 47.794 30.1092 48.0018 30.25C48.2149 30.3854 48.4013 30.6165 48.5665 30.9406L51.9547 37.6237L55.2577 31.015C55.4282 30.675 55.6146 30.4279 55.8224 30.2712C56.0355 30.1172 56.2379 30.0375 56.4297 30.0375C56.6561 30.0375 56.8479 30.1384 57.0051 30.335C57.1675 30.5342 57.2501 30.8131 57.2501 31.1744V39.6744H55.6093Z" fill="black"/>
<path d="M71.3594 34.9887C71.3594 35.7405 71.2049 36.4231 70.9013 37.0394C70.5949 37.6556 70.1821 38.1815 69.6653 38.6119C69.1539 39.0448 68.5626 39.3822 67.8966 39.6212C67.236 39.855 66.5435 39.9719 65.819 39.9719C65.0998 39.9719 64.4072 39.855 63.7413 39.6212C63.0727 39.3822 62.4787 39.0448 61.9619 38.6119C61.4505 38.1815 61.0376 37.6556 60.726 37.0394C60.4197 36.4231 60.2678 35.7405 60.2678 34.9887C60.2678 34.2397 60.4197 33.5597 60.726 32.9487C61.0376 32.3325 61.4505 31.8092 61.9619 31.3762C62.4787 30.938 63.0727 30.6006 63.7413 30.3669C64.4072 30.1331 65.0998 30.0162 65.819 30.0162C66.5435 30.0162 67.236 30.1331 67.8966 30.3669C68.5626 30.6006 69.1539 30.938 69.6653 31.3762C70.1821 31.8092 70.5949 32.3325 70.9013 32.9487C71.2049 33.5597 71.3594 34.2397 71.3594 34.9887ZM69.399 34.9887C69.399 34.4442 69.335 33.8997 69.2072 33.3525C69.0846 32.808 68.8875 32.3165 68.6105 31.8756C68.3335 31.4373 67.9632 31.0787 67.5024 30.8025C67.0389 30.5262 66.4795 30.3881 65.819 30.3881C65.1504 30.3881 64.5857 30.5262 64.1248 30.8025C63.6694 31.0787 63.2991 31.4373 63.0168 31.8756C62.7397 32.3165 62.5399 32.808 62.4201 33.3525C62.2976 33.8997 62.239 34.4442 62.239 34.9887C62.239 35.5359 62.2976 36.0831 62.4201 36.6356C62.5399 37.1828 62.7397 37.6742 63.0168 38.1125C63.2991 38.5534 63.6694 38.9094 64.1248 39.1856C64.5857 39.4619 65.1504 39.6 65.819 39.6C66.4795 39.6 67.0389 39.4619 67.5024 39.1856C67.9632 38.9094 68.3335 38.5534 68.6105 38.1125C68.8875 37.6742 69.0846 37.1828 69.2072 36.6356C69.335 36.0831 69.399 35.5359 69.399 34.9887Z" fill="black"/>
<path d="M81.6903 39.6743V34.9143H76.6826L76.8637 34.5531H81.6903V30.3137H83.3844V39.6743H81.6903ZM74.3918 39.6743V30.3137H76.0965V39.6743H74.3918Z" fill="black"/>
<path d="M96.9018 34.9675C96.9018 35.4854 96.7953 36.0247 96.5822 36.5825C96.3691 37.135 96.0495 37.6423 95.6233 38.1018C95.1971 38.5561 94.6643 38.9306 94.025 39.2281C93.3911 39.5256 92.6453 39.6743 91.7875 39.6743H87.1847V30.3137H91.4359C92.2164 30.3137 92.9409 30.4253 93.6095 30.6431C94.2754 30.8636 94.8508 31.1797 95.3356 31.5887C95.8177 31.9925 96.1986 32.4812 96.4756 33.055C96.758 33.6234 96.9018 34.2609 96.9018 34.9675ZM94.9307 34.755C94.9307 32.035 93.6468 30.675 91.0843 30.675H88.8895V39.3131H90.6155C91.4173 39.3131 92.0965 39.2068 92.6506 38.9943C93.2046 38.7818 93.6468 38.4817 93.9824 38.0912C94.3234 37.6954 94.5631 37.2173 94.707 36.6568C94.8561 36.0911 94.9307 35.4562 94.9307 34.755Z" fill="black"/>
<path d="M100.606 39.6743C100.478 39.6743 100.366 39.6425 100.276 39.5787C100.191 39.5097 100.119 39.4193 100.063 39.3131C100.012 39.2015 99.9722 39.0793 99.9456 38.9518C99.9243 38.819 99.9136 38.6942 99.9136 38.58V31.4081C99.9136 31.2886 99.9243 31.1637 99.9456 31.0362C99.9722 30.9034 100.012 30.7812 100.063 30.675C100.119 30.5687 100.191 30.4837 100.276 30.42C100.366 30.3509 100.478 30.3137 100.606 30.3137H108.054V30.675H102.183C101.991 30.675 101.847 30.7679 101.757 30.9512C101.664 31.1372 101.618 31.3284 101.618 31.525V34.5531H106.733V34.9143H101.618V38.4631C101.618 38.6543 101.664 38.8456 101.757 39.0368C101.847 39.2228 101.991 39.3131 102.183 39.3131H108.235V39.6743H100.606Z" fill="black"/>
<path d="M118.397 39.6743L117.694 37.7618C117.537 37.3236 117.388 36.9278 117.246 36.5718C117.103 36.2106 116.937 35.9078 116.746 35.6581C116.554 35.4111 116.319 35.2225 116.042 35.095C115.765 34.9622 115.406 34.8931 114.966 34.8931H113.411L113.581 34.5212H115.478C115.875 34.5212 116.224 34.4681 116.522 34.3618C116.82 34.2503 117.068 34.1015 117.268 33.9156C117.473 33.7243 117.625 33.5118 117.726 33.2781C117.832 33.039 117.886 32.7947 117.886 32.545C117.886 32.0004 117.697 31.5542 117.321 31.2062C116.943 30.8529 116.365 30.675 115.584 30.675H113.389C113.198 30.675 113.054 30.7679 112.963 30.9512C112.87 31.1372 112.825 31.3284 112.825 31.525V39.6743H111.12V31.4081C111.12 31.2886 111.131 31.1637 111.152 31.0362C111.178 30.9034 111.221 30.7812 111.28 30.675C111.336 30.5687 111.408 30.4837 111.493 30.42C111.583 30.3509 111.69 30.3137 111.812 30.3137H115.989C117.358 30.3137 118.344 30.5103 118.94 30.8981C119.542 31.2886 119.846 31.8092 119.846 32.46C119.846 32.97 119.71 33.3737 119.441 33.6712C119.178 33.9687 118.847 34.1998 118.45 34.3618C118.051 34.5186 117.622 34.6222 117.161 34.67C116.706 34.7204 116.287 34.7443 115.904 34.7443V34.7762C116.271 34.8134 116.623 34.8718 116.959 34.9568C117.3 35.0418 117.614 35.1667 117.907 35.3287C118.205 35.4934 118.472 35.7086 118.706 35.9768C118.946 36.2478 119.146 36.5878 119.303 36.9968L120.347 39.6743H118.397Z" fill="black"/>
<path d="M123.999 39.6743C123.871 39.6743 123.759 39.6425 123.668 39.5787C123.583 39.5097 123.511 39.4193 123.455 39.3131C123.405 39.2015 123.365 39.0793 123.338 38.9518C123.317 38.819 123.306 38.6942 123.306 38.58V31.4081C123.306 31.2886 123.317 31.1637 123.338 31.0362C123.365 30.9034 123.405 30.7812 123.455 30.675C123.511 30.5687 123.583 30.4837 123.668 30.42C123.759 30.3509 123.871 30.3137 123.999 30.3137H131.446V30.675H125.576C125.384 30.675 125.24 30.7679 125.149 30.9512C125.056 31.1372 125.011 31.3284 125.011 31.525V34.5531H130.125V34.9143H125.011V38.4631C125.011 38.6543 125.056 38.8456 125.149 39.0368C125.24 39.2228 125.384 39.3131 125.576 39.3131H131.628V39.6743H123.999Z" fill="black"/>
<path d="M141.79 39.6743L141.086 37.7618C140.929 37.3236 140.78 36.9278 140.639 36.5718C140.495 36.2106 140.33 35.9078 140.138 35.6581C139.946 35.4111 139.712 35.2225 139.435 35.095C139.158 34.9622 138.798 34.8931 138.359 34.8931H136.803L136.974 34.5212H138.87C139.267 34.5212 139.616 34.4681 139.914 34.3618C140.213 34.2503 140.46 34.1015 140.66 33.9156C140.865 33.7243 141.017 33.5118 141.118 33.2781C141.225 33.039 141.278 32.7947 141.278 32.545C141.278 32.0004 141.089 31.5542 140.713 31.2062C140.335 30.8529 139.757 30.675 138.977 30.675H136.782C136.59 30.675 136.446 30.7679 136.356 30.9512C136.262 31.1372 136.217 31.3284 136.217 31.525V39.6743H134.512V31.4081C134.512 31.2886 134.523 31.1637 134.544 31.0362C134.571 30.9034 134.614 30.7812 134.672 30.675C134.728 30.5687 134.8 30.4837 134.885 30.42C134.976 30.3509 135.082 30.3137 135.205 30.3137H139.382C140.751 30.3137 141.736 30.5103 142.333 30.8981C142.935 31.2886 143.239 31.8092 143.239 32.46C143.239 32.97 143.103 33.3737 142.834 33.6712C142.57 33.9687 142.24 34.1998 141.843 34.3618C141.443 34.5186 141.014 34.6222 140.554 34.67C140.098 34.7204 139.68 34.7443 139.296 34.7443V34.7762C139.664 34.8134 140.016 34.8718 140.351 34.9568C140.692 35.0418 141.006 35.1667 141.299 35.3287C141.598 35.4934 141.864 35.7086 142.099 35.9768C142.338 36.2478 142.538 36.5878 142.695 36.9968L143.739 39.6743H141.79Z" fill="black"/>
<path d="M154.818 36.6144C154.818 37.2598 154.668 37.799 154.37 38.2294C154.072 38.6544 153.683 38.9997 153.209 39.26C152.74 39.515 152.221 39.6956 151.653 39.8019C151.091 39.9134 150.545 39.9719 150.012 39.9719C149.65 39.9719 149.28 39.9453 148.904 39.8975C148.526 39.855 148.169 39.8019 147.828 39.7381C147.487 39.6744 147.17 39.6 146.88 39.515C146.595 39.4247 146.35 39.3344 146.145 39.2494L146.219 38.8456C146.432 38.9306 146.693 39.0209 147.008 39.1112C147.319 39.2042 147.642 39.2892 147.977 39.3662C148.318 39.438 148.654 39.4937 148.989 39.5362C149.33 39.5787 149.639 39.6 149.916 39.6C150.263 39.6 150.63 39.5734 151.014 39.515C151.403 39.4592 151.754 39.353 152.069 39.1962C152.388 39.0422 152.649 38.8217 152.857 38.5375C153.062 38.2559 153.166 37.8947 153.166 37.4537C153.166 37.0447 153.073 36.7286 152.889 36.5081C152.711 36.2823 152.484 36.1123 152.207 35.9981C151.93 35.8865 151.624 35.8069 151.291 35.7644C150.955 35.7165 150.641 35.674 150.343 35.6369C149.943 35.5811 149.506 35.5094 149.032 35.4244C148.555 35.334 148.108 35.1959 147.69 35.01C147.269 34.8267 146.917 34.5744 146.635 34.2556C146.358 33.9369 146.219 33.5198 146.219 33.0019C146.219 32.4015 146.35 31.9075 146.613 31.525C146.882 31.1372 147.226 30.8317 147.647 30.6112C148.073 30.3934 148.545 30.2394 149.064 30.1544C149.581 30.064 150.09 30.0162 150.588 30.0162C151.19 30.0162 151.781 30.0561 152.356 30.1331C152.937 30.2128 153.512 30.3509 154.082 30.5475L153.944 30.9406C153.502 30.7653 152.988 30.6298 152.399 30.5369C151.816 30.4386 151.216 30.3881 150.598 30.3881C150.305 30.3881 149.996 30.4094 149.671 30.4519C149.352 30.4944 149.056 30.5767 148.787 30.6962C148.515 30.8184 148.292 30.9937 148.116 31.2275C147.945 31.4559 147.86 31.7534 147.86 32.12C147.86 32.5609 147.959 32.9009 148.158 33.14C148.356 33.3817 148.63 33.5623 148.979 33.6819C149.333 33.804 149.749 33.8917 150.225 33.9475C150.708 33.998 151.23 34.0617 151.792 34.1387C152.444 34.2317 152.969 34.3698 153.369 34.5531C153.765 34.7311 154.072 34.9356 154.285 35.1694C154.498 35.3978 154.639 35.6369 154.711 35.8919C154.78 36.1415 154.818 36.3806 154.818 36.6144Z" fill="black"/>
<path d="M162.392 30.675V39.6743H160.687V30.675H156.926V30.3137H166.164V30.675H162.392Z" fill="black"/>
<path d="M169.522 39.6743C169.395 39.6743 169.283 39.6425 169.192 39.5787C169.107 39.5097 169.035 39.4193 168.979 39.3131C168.928 39.2015 168.888 39.0793 168.862 38.9518C168.841 38.819 168.83 38.6942 168.83 38.58V31.4081C168.83 31.2886 168.841 31.1637 168.862 31.0362C168.888 30.9034 168.928 30.7812 168.979 30.675C169.035 30.5687 169.107 30.4837 169.192 30.42C169.283 30.3509 169.395 30.3137 169.522 30.3137H176.97V30.675H171.099C170.908 30.675 170.764 30.7679 170.673 30.9512C170.58 31.1372 170.535 31.3284 170.535 31.525V34.5531H175.649V34.9143H170.535V38.4631C170.535 38.6543 170.58 38.8456 170.673 39.0368C170.764 39.2228 170.908 39.3131 171.099 39.3131H177.151V39.6743H169.522Z" fill="black"/>
</g>
<defs>
<clipPath id="clip0_40_387">
<rect width="179" height="51" fill="white" transform="translate(0.5 0.147949)"/>
</clipPath>
</defs>
</svg>
